PathFileType	4	(X/Y/Z)	/Users/itak/Documents/Research/Walk-IL/dataset/trc/00559_00009.trc
DataRate	CameraRate	NumFrames	NumMarkers	Units	OrigDataRate	OrigDataStartFrame	OrigNumFrames
100.000000	100.000000	4	53	mm	100.000000	0	337
Frame#	Time	RPSI			LPSI			L3			STRN			T10			C7			CLAV			RBAK			LBAK			LSHO			LUPA			LAEL			LAOL			LWTS			LWPS			LFRA			LIFD			LHPS			LHTS			RSHO			RUPA			RAEL			RAOL			RWTS			RWPS			RFRA			RIFD			RHTS			RHPS			RBHD			LFHD			RFHD			LBHD			LHIP			RHIP			RASI			LASI			LKNE			LTHI			LANK			LTIP			LTOE			LMT1			LMT5			LHEE			RKNE			RTHI			RANK			RTIP			RTOE			RMT1			RMT5			RHEE			
		X1	Y1	Z1	X2	Y2	Z2	X3	Y3	Z3	X4	Y4	Z4	X5	Y5	Z5	X6	Y6	Z6	X7	Y7	Z7	X8	Y8	Z8	X9	Y9	Z9	X10	Y10	Z10	X11	Y11	Z11	X12	Y12	Z12	X13	Y13	Z13	X14	Y14	Z14	X15	Y15	Z15	X16	Y16	Z16	X17	Y17	Z17	X18	Y18	Z18	X19	Y19	Z19	X20	Y20	Z20	X21	Y21	Z21	X22	Y22	Z22	X23	Y23	Z23	X24	Y24	Z24	X25	Y25	Z25	X26	Y26	Z26	X27	Y27	Z27	X28	Y28	Z28	X29	Y29	Z29	X30	Y30	Z30	X31	Y31	Z31	X32	Y32	Z32	X33	Y33	Z33	X34	Y34	Z34	X35	Y35	Z35	X36	Y36	Z36	X37	Y37	Z37	X38	Y38	Z38	X39	Y39	Z39	X40	Y40	Z40	X41	Y41	Z41	X42	Y42	Z42	X43	Y43	Z43	X44	Y44	Z44	X45	Y45	Z45	X46	Y46	Z46	X47	Y47	Z47	X48	Y48	Z48	X49	Y49	Z49	X50	Y50	Z50	X51	Y51	Z51	X52	Y52	Z52	X53	Y53	Z53	

1	0	-1529.201904296875	1010.658325195312	-275.927734375	-1484.186645507812	1013.061279296875	-401.7754821777344	-1505.072021484375	1103.471557617188	-340.8567199707031	-1286.0830078125	1293.785400390625	-283.7646179199219	-1516.303955078125	1228.875610351562	-345.8812866210938	-1476.789306640625	1503.6162109375	-319.4470825195312	-1305.2490234375	1403.860229492188	-288.0361022949219	-1566.427124023438	1378.2294921875	-254.8324127197266	-1489.039794921875	1451.945556640625	-415.8390808105469	-1375.032958984375	1478.880004882812	-472.3966064453125	-1368.834594726562	1352.944580078125	-554.2705078125	-1346.33740234375	1130.772338867188	-570.55322265625	-1443.200439453125	1124.853393554688	-544.34423828125	-1276.769165039062	887.9183349609375	-500.4093017578125	-1302.5986328125	864.311767578125	-580.752685546875	-1325.032592773438	1043.447631835938	-571.5187377929688	-1289.037963867188	716.501953125	-507.0087890625	-1297.076782226562	804.5809326171875	-572.47998046875	-1259.595092773438	809.46875	-515.0880737304688	-1458.262939453125	1465.935546875	-155.3750915527344	-1493.640014648438	1401.585693359375	-95.14244842529297	-1505.936401367188	1112.338623046875	-52.03904724121094	-1555.129272460938	1095.4306640625	-89.45573425292969	-1365.381469726562	892.98583984375	-70.16175079345703	-1421.944946289062	872.489013671875	-12.18936824798584	-1496.574462890625	1056.4736328125	-44.93080902099609	-1356.580078125	720.9169311523438	-64.00385284423828	-1338.914672851562	802.5435180664062	-48.80142974853516	-1403.123901367188	799.2097778320312	-8.456473350524902	-1420.253784179688	1683.236450195312	-243.3753509521484	-1228.682495117188	1705.892822265625	-320.9930419921875	-1291.129516601562	1702.29833984375	-190.8849334716797	-1342.323486328125	1686.05078125	-389.4270324707031	-1322.744262695312	936.0281372070312	-487.0661315917969	-1450.822875976562	940.1703491210938	-122.0183029174805	-1348.900756835938	971.5018310546875	-150.16015625	-1265.790771484375	962.8971557617188	-413.2516479492188	-1324.486206054688	492.0174560546875	-414.4663391113281	-1308.796508789062	657.4115600585938	-452.2481079101562	-1424.141967773438	29.26374244689941	-422.734130859375	-1395.850341796875	247.7156372070312	-432.1365051269531	-1233.358642578125	36.13403701782227	-316.4339904785156	-1312.145874023438	37.05078125	-298.109375	-1300.185791015625	32.28947067260742	-405.3409423828125	-1504.341064453125	28.1166877746582	-386.4607543945312	-1415.9716796875	495.6817321777344	-158.3825073242188	-1413.752197265625	786.0590209960938	-111.1384353637695	-1521.07080078125	32.58551406860352	-208.8888092041016	-1421.578491210938	352.072998046875	-174.1310577392578	-1296.800537109375	36.80059814453125	-173.0801849365234	-1343.7919921875	36.42887878417969	-234.1240539550781	-1400.062744140625	36.91721725463867	-146.3764801025391	-1552.185913085938	21.2895336151123	-279.7845458984375	
2	0.01	-1529.372802734375	1010.522521972656	-276.0672302246094	-1484.40234375	1012.988525390625	-401.958984375	-1505.356689453125	1103.4775390625	-340.9971618652344	-1286.204223632812	1293.7080078125	-283.8468322753906	-1516.480590820312	1228.887084960938	-345.9319763183594	-1476.857788085938	1503.6015625	-319.449462890625	-1305.3076171875	1403.784912109375	-288.1061706542969	-1566.51806640625	1378.237915039062	-254.8565063476562	-1489.1064453125	1451.929321289062	-415.8459777832031	-1375.130737304688	1478.831665039062	-472.4317626953125	-1369.039428710938	1353.001708984375	-554.376220703125	-1346.671142578125	1130.794311523438	-570.8597412109375	-1443.557495117188	1124.957885742188	-544.560302734375	-1276.890380859375	887.9907836914062	-501.1248168945312	-1303.083984375	864.3158569335938	-581.2931518554688	-1325.436157226562	1043.4296875	-571.8617553710938	-1288.931030273438	716.7020874023438	-507.8745727539062	-1297.6865234375	804.6431884765625	-573.1369018554688	-1259.588012695312	809.666015625	-515.9976806640625	-1458.293701171875	1465.87158203125	-155.4122619628906	-1493.676513671875	1401.53662109375	-95.16378784179688	-1506.101806640625	1112.28515625	-52.04835510253906	-1555.296264648438	1095.415283203125	-89.48532104492188	-1365.670654296875	892.84912109375	-70.20198059082031	-1422.2646484375	872.3687744140625	-12.18270206451416	-1496.534790039062	1056.317993164062	-45.48068618774414	-1357.097534179688	720.7376708984375	-63.9776611328125	-1339.320556640625	802.3429565429688	-48.84692001342773	-1403.526123046875	799.10693359375	-8.428774833679199	-1420.207153320312	1683.222045898438	-243.3880920410156	-1228.624267578125	1705.790771484375	-321.0296936035156	-1291.037841796875	1702.194702148438	-190.8919677734375	-1342.276733398438	1685.95361328125	-389.4730224609375	-1322.921752929688	936.0531005859375	-487.1972961425781	-1451.047119140625	940.0109252929688	-122.2079086303711	-1349.135986328125	971.4381103515625	-150.3358154296875	-1265.975219726562	962.8486328125	-413.3733215332031	-1323.9423828125	492.1378173828125	-414.4593811035156	-1308.69873046875	657.4317016601562	-452.2172546386719	-1424.14013671875	29.25504875183105	-422.7352600097656	-1395.515380859375	247.7443695068359	-432.0143737792969	-1233.36181640625	36.13253402709961	-316.4360656738281	-1312.15625	37.03984451293945	-298.1104431152344	-1300.183837890625	32.30374908447266	-405.3274536132812	-1504.343017578125	28.09807395935059	-386.4723815917969	-1415.318725585938	495.6296081542969	-158.3829193115234	-1413.803955078125	785.9127807617188	-111.3247909545898	-1521.044555664062	32.62019348144531	-208.8914337158203	-1420.890869140625	351.8938598632812	-174.0959625244141	-1296.799194335938	36.82606506347656	-173.1348876953125	-1343.756103515625	36.38217544555664	-234.2002868652344	-1400.024536132812	36.96498107910156	-146.4246063232422	-1552.243530273438	21.2108154296875	-279.8160705566406	
3	0.02	-1529.60595703125	1010.3515625	-276.2506713867188	-1484.6943359375	1012.907043457031	-402.1951293945312	-1505.700439453125	1103.47607421875	-341.1838684082031	-1286.359130859375	1293.604125976562	-283.94677734375	-1516.706787109375	1228.89794921875	-345.98583984375	-1476.933471679688	1503.580688476562	-319.445556640625	-1305.383178710938	1403.684204101562	-288.1822509765625	-1566.635498046875	1378.239624023438	-254.8885498046875	-1489.19287109375	1451.898193359375	-415.8477783203125	-1375.252197265625	1478.766235351562	-472.4646301269531	-1369.297973632812	1353.064208984375	-554.504638671875	-1347.09130859375	1130.82177734375	-571.2413330078125	-1443.949951171875	1125.052856445312	-544.8063354492188	-1277.810180664062	887.6550903320312	-501.6821594238281	-1303.673217773438	864.326904296875	-581.966796875	-1325.918701171875	1043.40673828125	-572.2813720703125	-1289.07421875	716.7738037109375	-508.7748107910156	-1298.4013671875	804.6961669921875	-573.9221801757812	-1259.860229492188	809.7303466796875	-516.9563598632812	-1458.330200195312	1465.782836914062	-155.45458984375	-1493.719360351562	1401.469848632812	-95.18204498291016	-1506.31103515625	1112.200927734375	-52.06386184692383	-1555.505615234375	1095.38134765625	-89.52568054199219	-1366.010620117188	892.6830444335938	-70.24207305908203	-1422.634521484375	872.2222900390625	-12.17691516876221	-1496.567260742188	1056.15087890625	-45.97178268432617	-1357.693481445312	720.52685546875	-63.94211578369141	-1339.779296875	802.1045532226562	-48.90400695800781	-1403.976318359375	798.9816284179688	-8.411856651306152	-1420.135009765625	1683.203857421875	-243.4033050537109	-1228.546875	1705.653198242188	-321.0716247558594	-1290.912109375	1702.0517578125	-190.9060516357422	-1342.206787109375	1685.83056640625	-389.5227966308594	-1323.158569335938	936.0735473632812	-487.3657836914062	-1451.344604492188	939.8140258789062	-122.4755859375	-1349.428955078125	971.345458984375	-150.5569763183594	-1266.215454101562	962.785400390625	-413.5335998535156	-1323.25634765625	492.263671875	-414.4109802246094	-1308.5361328125	657.4532470703125	-452.1433410644531	-1424.133911132812	29.24971580505371	-422.7342529296875	-1395.091430664062	247.7726287841797	-431.8623046875	-1233.365234375	36.13001251220703	-316.4345703125	-1312.166381835938	37.02288055419922	-298.1043701171875	-1300.183471679688	32.31836318969727	-405.3126831054688	-1504.342529296875	28.08308601379395	-386.4842529296875	-1414.48291015625	495.5392761230469	-158.3920440673828	-1413.853515625	785.7227172851562	-111.5680313110352	-1521.009155273438	32.66959381103516	-208.9024810791016	-1420.021362304688	351.673095703125	-174.0679473876953	-1296.796997070312	36.86281967163086	-173.2202606201172	-1343.7041015625	36.3160514831543	-234.3123016357422	-1399.974365234375	37.03682327270508	-146.4985504150391	-1552.310668945312	21.12971878051758	-279.8503723144531	
4	0.03	-1529.89892578125	1010.152770996094	-276.4765930175781	-1485.059448242188	1012.821350097656	-402.4764099121094	-1506.081420898438	1103.463745117188	-341.410888671875	-1286.54345703125	1293.473754882812	-284.0582580566406	-1516.9755859375	1228.9052734375	-346.0367126464844	-1477.009521484375	1503.552734375	-319.430908203125	-1305.473754882812	1403.558959960938	-288.2574768066406	-1566.77490234375	1378.229248046875	-254.9264068603516	-1489.297485351562	1451.84912109375	-415.8411254882812	-1375.392944335938	1478.684692382812	-472.4884948730469	-1369.597045898438	1353.124877929688	-554.6477661132812	-1347.568481445312	1130.848754882812	-571.6747436523438	-1444.343505859375	1125.121826171875	-545.0653076171875	-1279.322021484375	887.005615234375	-502.106201171875	-1304.327270507812	864.3453369140625	-582.7379150390625	-1326.444458007812	1043.379272460938	-572.7553100585938	-1289.548461914062	716.6524047851562	-509.6112365722656	-1299.1640625	804.7269287109375	-574.78173828125	-1260.485473632812	809.5986938476562	-517.8634033203125	-1458.36962890625	1465.668212890625	-155.4968719482422	-1493.76611328125	1401.38427734375	-95.19242095947266	-1506.554809570312	1112.082763671875	-52.08721160888672	-1555.748291015625	1095.323120117188	-89.57635498046875	-1366.373046875	892.4998779296875	-70.27988433837891	-1423.0244140625	872.05810546875	-12.17353534698486	-1496.698608398438	1055.989868164062	-46.31237411499023	-1358.309326171875	720.3021240234375	-63.90434646606445	-1340.24658203125	801.8485717773438	-48.97129440307617	-1404.430541992188	798.8409423828125	-8.412890434265137	-1420.033203125	1683.181274414062	-243.4166564941406	-1228.449951171875	1705.476318359375	-321.1186828613281	-1290.750366210938	1701.868408203125	-190.9303436279297	-1342.111328125	1685.685424804688	-389.5698852539062	-1323.451416015625	936.0818481445312	-487.5680541992188	-1451.704467773438	939.5921020507812	-122.8211059570312	-1349.7666015625	971.2225341796875	-150.8135986328125	-1266.50732421875	962.7105102539062	-413.7315979003906	-1322.44970703125	492.3795166015625	-414.3010864257812	-1308.296508789062	657.4743041992188	-452.0099487304688	-1424.121215820312	29.25264167785645	-422.7291870117188	-1394.591918945312	247.7915649414062	-431.6847839355469	-1233.3681640625	36.12596893310547	-316.4266357421875	-1312.174438476562	36.99924850463867	-298.0875854492188	-1300.186645507812	32.33354949951172	-405.2967834472656	-1504.338623046875	28.07715225219727	-386.4939270019531	-1413.49755859375	495.4050903320312	-158.4138488769531	-1413.892822265625	785.4981689453125	-111.8568954467773	-1520.967163085938	32.73326873779297	-208.9228668212891	-1419.0126953125	351.4214782714844	-174.0514678955078	-1296.794067382812	36.91066360473633	-173.3387145996094	-1343.63671875	36.23208236694336	-234.4600372314453	-1399.915283203125	37.13284301757812	-146.5986480712891	-1552.381469726562	21.0550537109375	-279.8846130371094	
